<svg width="112" height="112" viewBox="0 0 112 112" fill="none" xmlns="http://www.w3.org/2000/svg">
<g clip-path="url(#clip0_512_510)">
<rect x="2" y="2" width="108" height="108" rx="8" fill="white"/>
<path d="M92.7227 51.4773H80.024V48.936H92.7227V43.856H72.4053V56.5547H85.104V59.096H72.4053V64.176H92.7227V51.4773Z" fill="black"/>
<path d="M69.8667 43.856H64.7867V64.1733H69.8667V43.856Z" fill="black"/>
<path d="M41.9307 43.856V48.936H57.168V51.4773H41.9307V64.176H47.008V56.632L54.6293 64.176H62.248L54.2987 56.5547H62.248V43.856H41.9307Z" fill="black"/>
<path d="M26.6907 56.5547H31.7573V51.488H26.6907V56.5547ZM27.9627 52.7467H30.5013V55.2853H27.9627V52.7467Z" fill="black"/>
<path d="M24.152 43.856H19.7067C19.5387 43.8573 19.3779 43.9243 19.2587 44.0427C19.1994 44.1018 19.1523 44.172 19.1203 44.2494C19.0883 44.3267 19.0719 44.4096 19.072 44.4933V63.5387C19.0719 63.6224 19.0883 63.7053 19.1203 63.7827C19.1523 63.86 19.1994 63.9302 19.2587 63.9893C19.3781 64.107 19.539 64.1731 19.7067 64.1733H31.7707V59.1067H24.152V43.856Z" fill="black"/>
<path d="M38.7547 43.856H26.6907V48.936H34.312V56.5547H39.3787V44.4933C39.3802 44.3255 39.3161 44.1638 39.2 44.0427C39.081 43.9256 38.9216 43.8588 38.7547 43.856Z" fill="black"/>
<path d="M39.392 59.096H34.312V70.5253H39.392V59.096Z" fill="black"/>
<path d="M26.16 41H16.6347C16.4666 41.0007 16.3055 41.0678 16.1867 41.1867C16.0678 41.3055 16.0007 41.4666 16 41.6347V51.16H17.2693V42.8933C17.2728 42.7271 17.3411 42.5688 17.4597 42.4522C17.5783 42.3356 17.7377 42.27 17.904 42.2693H26.1707L26.16 41Z" fill="black"/>
<path d="M94.7307 57.5067V65.7733C94.73 65.9414 94.6629 66.1025 94.544 66.2213C94.4251 66.3402 94.2641 66.4073 94.096 66.408H85.8293V67.6667H95.3547C95.4388 67.6677 95.5223 67.6521 95.6004 67.6207C95.6785 67.5893 95.7496 67.5428 95.8096 67.4838C95.8696 67.4248 95.9173 67.3545 95.95 67.2769C95.9826 67.1994 95.9997 67.1161 96 67.032V57.5067H94.7307Z" fill="black"/>
</g>
<defs>
<clipPath id="clip0_512_510">
<rect x="2" y="2" width="108" height="108" rx="8" fill="white"/>
</clipPath>
</defs>
</svg>